<svg width="60" height="60" viewBox="0 0 60 60" fill="none" xmlns="http://www.w3.org/2000/svg">
<path d="M41.8709 47.3148L49.4185 53.6596C49.6918 53.8893 50.025 54.0363 50.379 54.0831C50.733 54.1299 51.093 54.0747 51.4166 53.924C51.7403 53.7732 52.0142 53.5332 52.2061 53.2321C52.398 52.931 52.5 52.5814 52.5 52.2243V15C52.5 14.5027 52.3025 14.0258 51.9508 13.6742C51.5992 13.3225 51.1223 13.125 50.625 13.125H9.375C8.87772 13.125 8.4008 13.3225 8.04917 13.6742C7.69754 14.0258 7.5 14.5027 7.5 15V45C7.5 45.4973 7.69754 45.9742 8.04917 46.3258C8.4008 46.6775 8.87772 46.875 9.375 46.875H40.6644C41.1058 46.875 41.533 47.0307 41.8709 47.3148Z" stroke="white" stroke-width="2" stroke-linecap="round" stroke-linejoin="round"/>
<path d="M30 31.875C28.9645 31.875 28.125 31.0355 28.125 30C28.125 28.9645 28.9645 28.125 30 28.125C31.0355 28.125 31.875 28.9645 31.875 30C31.875 31.0355 31.0355 31.875 30 31.875Z" fill="white"/>
<path d="M41.25 31.875C40.2145 31.875 39.375 31.0355 39.375 30C39.375 28.9645 40.2145 28.125 41.25 28.125C42.2855 28.125 43.125 28.9645 43.125 30C43.125 31.0355 42.2855 31.875 41.25 31.875Z" fill="white"/>
<path d="M18.75 31.875C17.7145 31.875 16.875 31.0355 16.875 30C16.875 28.9645 17.7145 28.125 18.75 28.125C19.7855 28.125 20.625 28.9645 20.625 30C20.625 31.0355 19.7855 31.875 18.75 31.875Z" fill="white"/>
</svg>
