<svg width="32" height="32" viewBox="0 0 32 32" fill="none" xmlns="http://www.w3.org/2000/svg">
<path fill-rule="evenodd" clip-rule="evenodd" d="M12.8722 12.6002V11.3521C12.439 11.2908 12.0022 11.2589 11.5647 11.2568C6.21452 11.2568 1.86182 15.6103 1.86182 20.9605C1.86182 24.2424 3.50205 27.1476 6.00418 28.9044C4.3288 27.1127 3.39736 24.751 3.39872 22.298C3.39872 17.024 7.62755 12.7234 12.8722 12.6002Z" fill="white"/>
<path fill-rule="evenodd" clip-rule="evenodd" d="M13.1007 26.7289C15.4878 26.7289 17.4351 24.83 17.5238 22.4635L17.5319 1.33755H21.3913C21.3089 0.896453 21.2673 0.448723 21.2667 0H15.9957L15.9869 21.1267C15.899 23.4925 13.9509 25.3907 11.5646 25.3907C10.8481 25.3909 10.1425 25.2164 9.50879 24.8821C9.91792 25.4529 10.4571 25.9181 11.0817 26.2393C11.7063 26.5605 12.3984 26.7283 13.1007 26.7289ZM28.6013 8.50827V7.33414C27.1829 7.33547 25.7949 6.92287 24.6077 6.14686C25.6486 7.3454 27.0501 8.17394 28.602 8.50827" fill="white"/>
<path fill-rule="evenodd" clip-rule="evenodd" d="M24.607 6.14623C23.4435 4.81488 22.8026 3.10653 22.8034 1.33838H21.3911C21.574 2.31567 21.9532 3.24568 22.506 4.07209C23.0588 4.89851 23.7736 5.60413 24.607 6.14623ZM11.5644 16.5285C10.3896 16.5299 9.26337 16.9972 8.43263 17.8279C7.60197 18.6586 7.1347 19.7848 7.1333 20.9596C7.1341 21.7678 7.3557 22.5604 7.77423 23.2517C8.19277 23.943 8.79223 24.5068 9.5079 24.8822C8.96297 24.1307 8.66957 23.2262 8.6695 22.298C8.67063 21.123 9.13783 19.9966 9.96857 19.1657C10.7993 18.3348 11.9257 17.8674 13.1006 17.8661C13.5572 17.8661 13.9948 17.9416 14.4081 18.0713V12.6896C13.975 12.6282 13.5381 12.5964 13.1006 12.5943C13.0236 12.5943 12.9482 12.5987 12.872 12.6002V16.7338C12.4491 16.5992 12.0082 16.53 11.5644 16.5285Z" fill="white"/>
<path fill-rule="evenodd" clip-rule="evenodd" d="M28.6013 8.50806V12.605C25.8675 12.605 23.3353 11.7307 21.2671 10.2465V20.9594C21.2671 26.3095 16.9151 30.6623 11.5649 30.6623C9.49741 30.6623 7.58015 30.01 6.00439 28.9033C6.91035 29.8803 8.00828 30.6596 9.22948 31.1925C10.4507 31.7253 11.7687 32.0001 13.1011 31.9998C18.4513 31.9998 22.804 27.6471 22.804 22.2977V11.5848C24.9406 13.1212 27.5065 13.9463 30.1381 13.9433V8.67079C29.6105 8.67079 29.0974 8.61359 28.6013 8.50732" fill="white"/>
<path fill-rule="evenodd" clip-rule="evenodd" d="M21.2671 20.9596V10.2468C23.4036 11.7834 25.9696 12.6085 28.6013 12.6053V8.50837C27.0496 8.1737 25.6483 7.3449 24.6077 6.14623C23.7742 5.60413 23.0594 4.89851 22.5066 4.07209C21.9539 3.24568 21.5746 2.31567 21.3917 1.33838H17.5322L17.5242 22.4643C17.4355 24.8301 15.4882 26.7291 13.1011 26.7291C12.3988 26.7284 11.7067 26.5604 11.0821 26.2393C10.4576 25.9182 9.91835 25.453 9.50915 24.8822C8.79335 24.5069 8.19369 23.9432 7.77502 23.2518C7.35635 22.5605 7.13462 21.7679 7.13382 20.9596C7.13515 19.7848 7.60242 18.6586 8.43315 17.8279C9.26382 16.9972 10.3902 16.5299 11.565 16.5285C12.0208 16.5285 12.4584 16.6033 12.8724 16.7338V12.6002C7.62775 12.7233 3.39893 17.024 3.39893 22.298C3.39893 24.8484 4.38981 27.1703 6.0044 28.9043C7.63209 30.0502 9.57442 30.6643 11.565 30.6626C16.9152 30.6626 21.2671 26.3098 21.2671 20.9596Z" fill="white"/>
</svg>
